<svg id="Layer_3" data-name="Layer 3" xmlns="http://www.w3.org/2000/svg" viewBox="0 0 584.86 584.76"><defs><style>.cls-1{fill:none;stroke:#ed2224;stroke-miterlimit:10;stroke-width:15px;}</style></defs><path class="cls-1" d="M278.72,62.05S122.17,81.2,71.39,237.58H278.72v40.6H21.84S42,50.58,278.72,21.85Z" transform="translate(-13.22 -13.38)"/><path class="cls-1" d="M334.38,21.85S348,21.13,375,29.17V237.58s159.75-.56,215.19.1v40.5H334.38Z" transform="translate(-13.22 -13.38)"/><path class="cls-1" d="M21.84,333.84H278.72v40.6H71.38S76.86,402.39,93,425.56H278.72v40.8H121.84s78.85,82.09,156.88,82.09v41.72S55.9,576.55,21.84,333.84Z" transform="translate(-13.22 -13.38)"/><path class="cls-1" d="M334.38,333.84H590.16s-8.46,156.29-162.49,230.4V517.62s36.67-19.36,62.49-51.26H375V582.84s-12.76,6.39-40.59,7.33Z" transform="translate(-13.22 -13.38)"/><path class="cls-1" d="M375,374.44v51.12H519.05a183.38,183.38,0,0,0,21.57-51.12Z" transform="translate(-13.22 -13.38)"/></svg>