<svg id="Layer_3" data-name="Layer 3" xmlns="http://www.w3.org/2000/svg" viewBox="0 0 602.3 602.23"><defs><style>.cls-1{fill:none;stroke:#ed2224;stroke-miterlimit:10;stroke-width:10px;}</style></defs><path class="cls-1" d="M277.61,52.2S114.74,72.13,61.92,234.82H277.61v42.23H10.37s21-236.78,267.24-266.67Z" transform="translate(-4.62 -4.73)"/><path class="cls-1" d="M335.52,10.38s14.15-.76,42.24,7.62V234.82s166.19-.59,223.87.1v42.13H335.52Z" transform="translate(-4.62 -4.73)"/><path class="cls-1" d="M10.37,335H277.61V377.2H61.91s5.69,29.08,22.43,53.19H277.61v42.44H114.4s82,85.41,163.21,85.41v43.4S45.8,587.47,10.37,335Z" transform="translate(-4.62 -4.73)"/><path class="cls-1" d="M335.52,335H601.63s-8.8,162.6-169,239.71v-48.5s38.16-20.15,65-53.34H377.76V594s-13.28,6.65-42.24,7.62Z" transform="translate(-4.62 -4.73)"/><path class="cls-1" d="M377.76,377.2v53.19h149.9s15.27-23.45,22.43-53.19Z" transform="translate(-4.62 -4.73)"/></svg>